<svg width="32" height="32" viewBox="0 0 32 32" fill="none" xmlns="http://www.w3.org/2000/svg">
<path d="M30.9183 6.30286L21.2225 15.9997L30.9183 25.696C32.3606 27.1388 32.3606 29.4759 30.9183 30.9186C30.1977 31.6392 29.253 31.9998 28.3087 31.9998C27.3629 31.9998 26.418 31.6398 25.698 30.9186L16 21.2212L6.30286 30.9185C5.58235 31.6391 4.63751 31.9997 3.69239 31.9997C2.74755 31.9997 1.80335 31.6397 1.0822 30.9185C-0.36 29.4764 -0.36 27.1393 1.0822 25.696L10.7777 15.9996L1.08165 6.30286C-0.360551 4.86065 -0.360551 2.52303 1.08165 1.08083C2.52358 -0.360275 4.85983 -0.360275 6.30231 1.08083L16 10.7776L25.6969 1.08083C27.1396 -0.360275 29.4761 -0.360275 30.9178 1.08083C32.3606 2.52303 32.3606 4.86065 30.9183 6.30286Z" fill="#F8F0FB"/>
</svg>
