<svg width="32" height="32" viewBox="0 0 32 32" fill="none" xmlns="http://www.w3.org/2000/svg">
<path d="M16 20C18.2091 20 20 18.2091 20 16C20 13.7909 18.2091 12 16 12C13.7909 12 12 13.7909 12 16C12 18.2091 13.7909 20 16 20Z" fill="#F8F0FB"/>
<path d="M16 32C18.2091 32 20 30.2091 20 28C20 25.7909 18.2091 24 16 24C13.7909 24 12 25.7909 12 28C12 30.2091 13.7909 32 16 32Z" fill="#F8F0FB"/>
<path d="M16 8C18.2091 8 20 6.20914 20 4C20 1.79086 18.2091 0 16 0C13.7909 0 12 1.79086 12 4C12 6.20914 13.7909 8 16 8Z" fill="#F8F0FB"/>
</svg>
